<?xml version="1.0" standalone="no"?>
<!DOCTYPE svg PUBLIC "-//W3C//DTD SVG 1.1//EN" "http://www.w3.org/Graphics/SVG/1.1/DTD/svg11.dtd" >
<svg>
<metadata>
Created by FontForge 20090914 at Sun Nov 22 00:55:39 2015
 By www-data
(C) 1995 Benn Coifman zephyr@cory.eecs.berkeley.edu
</metadata>
<defs>
<font id="ZephyrPioneer" horiz-adv-x="1200" >
  <font-face 
    font-family="ZephyrPioneer"
    font-weight="400"
    font-stretch="normal"
    units-per-em="1200"
    panose-1="0 0 4 0 0 0 0 0 0 0"
    ascent="960"
    descent="-240"
    x-height="720"
    cap-height="900"
    bbox="0 -122 2654 1035"
    underline-thickness="20"
    underline-position="-123"
    unicode-range="U+0020-U+00C6"
  />
<missing-glyph horiz-adv-x="600" 
d="M75 0v1000h450v-1000h-450zM150 75h300v850h-300v-850z" />
    <glyph glyph-name=".notdef" horiz-adv-x="600" 
d="M75 0v1000h450v-1000h-450zM150 75h300v850h-300v-850z" />
    <glyph glyph-name="space" unicode=" " horiz-adv-x="900" 
 />
    <glyph glyph-name="exclam" unicode="!" horiz-adv-x="600" 
d="M450 300h-300v600h300v-600zM450 0h-300v100h300v-100z" />
    <glyph glyph-name="numbersign" unicode="#" horiz-adv-x="605" 
d="M451 825h-13l-42 199h-165l-49 -198h-13l55 209h182zM520 736c-20 43.333 -54.666 62.667 -103.999 58c-38.667 -4 -66.334 -25.333 -83.001 -64c0 5.33301 0.333008 8.66602 1 9.99902c14.667 38.667 42.667 59.334 84 62.001c24.667 1.33301 46.667 -3 66 -13
c24 -12 36 -29.667 36 -53zM522.001 693.001c-20 43.333 -54.667 62.332 -104 56.999c-39.333 -3.33301 -67.333 -24.666 -84 -63.999c0 6 0.333008 9.66699 1 11c15.333 38.667 43.333 59 84 61c24.667 2 47 -2.33301 67 -13c24 -12 36 -29.333 36 -52zM438.001 567h-12v75
h12v-75zM334.001 656h-44v11h44v-11zM296.001 730c-16.667 38.667 -44.333 59.999 -83 63.999c-49.333 4.66699 -84 -14.666 -104 -57.999c0 23.333 11.667 41 35 53c20 10 42.333 14.333 67 13c41.333 -2.66699 69.333 -23.334 84 -62.001
c0.666992 -1.33301 1 -4.66602 1 -9.99902zM338.002 563.999h-11v72h11v-72zM294.002 685.999c-16.667 39.333 -44.333 60.667 -83 64c-49.333 5.33301 -84 -13.667 -104 -57c0 22.667 12 40 36 52c20 10.667 42.333 15 67 13c40.667 -2 68.667 -22.333 84 -61v-11z
M517.003 509c0 -23.333 -12.001 -41 -36.001 -53c-20 -10 -42.333 -14.333 -67 -13c-40.667 2.66699 -68.667 23.334 -84 62.001v10c16.667 -38.667 44.334 -60 83.001 -64c49.333 -4.66699 84 14.666 104 57.999zM295.002 564h-11v72h11v-72zM336.002 538h-45v11h45v-11z
M201.002 567h-11v75h11v-75zM313.002 338h-11v111h11v-111zM448.002 418l-30 -288h-13l30 288h13zM290.002 515c0 -5.33301 -0.333008 -8.66699 -1 -10c-15.333 -38.667 -43.333 -59.334 -84 -62.001c-24.667 -1.33301 -47 3 -67 13c-24 12 -36 29.667 -36 53
c20 -43.333 54.667 -62.666 104 -57.999c39.333 4 67.333 25.333 84 64zM331.002 261.999l-17 -11h-29v15h29l17 11v-15zM205.002 133.999h-13l-32 288h13zM408.002 91.999c0 -22 -12.667 -41.665 -38 -58.998c-22.667 -15.333 -45.667 -23 -69 -23
c-19.333 -0.666992 -38.666 7 -57.999 23s-33 34 -41 54v11c7.33301 -17.333 19.666 -34.333 36.999 -51c20.667 -19.333 40.667 -29 60 -29c22.667 -0.666992 44 6.16602 64 20.499s35 32.166 45 53.499z" />
    <glyph glyph-name="dollar" unicode="$" horiz-adv-x="326" 
d="M298 623l-19 -18l6 18v31l13 -3v-28zM47 606l-18 18v28l13 2v-30zM255 306l-20 -0.00390625v164c0 23.333 -4.33301 40.333 -13 51c-14.667 18.667 -32.667 28.334 -54 29.001c-26 1.33301 -49 -15.667 -69 -51v-193h-20v258h20v-34
c17.333 26.667 40.333 39.334 69 38.001c25.333 -1.33301 48.333 -12.666 69 -33.999c12 -13.333 18 -34.666 18 -63.999v-164z" />
    <glyph glyph-name="percent" unicode="%" horiz-adv-x="493" 
d="M454 371c0 -16.667 -6.16699 -30.6689 -18.5 -42.002s-27.5 -17.666 -45.5 -18.999c-18 -0.666992 -34.333 5 -49 17s-21.667 26.667 -21 44c0.666992 16.667 7.66699 30.5 21 41.5s28.666 16.5 45.999 16.5c20.667 0 38 -7 52 -21v309l-280 -73v-344
c0.666992 -4 1 -7 1 -9c0 -16.667 -6.33301 -30.667 -19 -42s-27.667 -17.666 -45 -18.999c-18.667 -0.666992 -35.167 5 -49.5 17s-21.166 26.667 -20.499 44c0 16.667 6.66699 30.5 20 41.5s29 16.5 47 16.5c20.667 0 38 -7 52 -21v442l309 80v-129v0v-341v-9z" />
    <glyph glyph-name="ampersand" unicode="&#x26;" horiz-adv-x="1462" 
d="M1312 0h-423.999l-118 115l-237 -97c-28.667 -12 -56.334 -18 -83.001 -18c-55.333 0 -102.5 19.5 -141.5 58.5s-58.5 86.167 -58.5 141.5c0 89.333 39 150 117 182l93 39l-145 142c-36 35.333 -54 81 -54 137c0 55.333 19.5 102.5 58.5 141.5s86.167 58.5 141.5 58.5
h415c55.333 0 102.5 -19.5 141.5 -58.5s58.5 -86.167 58.5 -141.5c0 -89.333 -39 -150 -117 -182l-120 -50l154 -153l84 35l38 -93l-45 -18zM976.001 700c0 27.333 -9.83301 50.833 -29.5 70.5s-43.167 29.5 -70.5 29.5h-129c-28 0 -51.667 -9.83301 -71 -29.5
s-29 -43.167 -29 -70.5c0 -28 8.66699 -50.667 26 -68l88 -87l160 65c36.667 15.333 55 45.333 55 90zM693.001 192l-155 152l-133 -54c-36.667 -15.333 -55 -45.333 -55 -90c0 -27.333 9.83301 -50.833 29.5 -70.5s43.167 -29.5 70.5 -29.5c13.333 0 28.333 3.33301 45 10z
" />
    <glyph glyph-name="quotesingle" unicode="'" horiz-adv-x="100" 
d="M100 900c0 -14.667 -6.83301 -35 -20.5 -61s-23.5 -39 -29.5 -39v50c-14 0 -25.833 4.83301 -35.5 14.5s-14.5 21.5 -14.5 35.5s4.83301 25.833 14.5 35.5s21.5 14.5 35.5 14.5s25.833 -4.83301 35.5 -14.5s14.5 -21.5 14.5 -35.5z" />
    <glyph glyph-name="asterisk" unicode="*" horiz-adv-x="1378" 
d="M1362 -122h-1346v1072h1346v-1072zM1322 -82v992h-1266v-992h1266zM1302 -62h-1226v952h1226v-952zM1224 451v155c0 8 -3.5 15.5 -10.5 22.5s-14.5 10.5 -22.5 10.5h-66v-188h32v155h26c5.33301 0 8 -2.66699 8 -8v-147h33zM1097 483v123c0 8 -3.5 15.5 -10.5 22.5
s-14.5 10.5 -22.5 10.5h-40c-8 0 -15.5 -3.5 -22.5 -10.5s-10.5 -14.5 -10.5 -22.5v-123c0 -8 3.5 -15.333 10.5 -22s14.5 -10 22.5 -10h40c8 0 15.5 3.33301 22.5 10s10.5 14 10.5 22zM974 606v33h-33v55c0 -1.33301 -2.16699 -5 -6.5 -11s-12.833 -10 -25.5 -12v-32h-32
v-33h32v-139c0 -10.667 5.33301 -16 16 -16h33c-11.333 0 -17 5.33301 -17 16v139h33zM865 532l-0.000976562 74.001c0 8 -3.33301 15.5 -10 22.5s-14 10.5 -22 10.5h-13c0 7.33301 3.66699 12.333 11 15l-7 15c-13.333 -6 -20 -16 -20 -30h-11
c-8.66699 0 -16.334 -3.5 -23.001 -10.5s-10 -14.5 -10 -22.5v-74c0 -17.333 9 -28.333 27 -33c-18 0 -27 -8.66699 -27 -26c0 -6.66699 2.83301 -12.834 8.5 -18.501s11.834 -8.5 18.501 -8.5h35c5.33301 0 8 -2.66699 8 -8v-12c0 -5.33301 -2.66699 -8 -8 -8h-21
c-5.33301 0 -8 2.66699 -8 8v6h-33v-14c0 -8 3.33301 -15.333 10 -22s14.334 -10 23.001 -10h37c8 0 15.333 3.33301 22 10s10 14 10 22v23c0 8 -3.33301 15.333 -10 22s-14 10 -22 10h-21c-10.667 0 -16 5.66699 -16 17c0 3.33301 1 6.33301 3 9h37c8 0 15.333 3.5 22 10.5
s10 14.5 10 22.5zM607.999 710.001v32h-32v-32h32zM734.999 451.001v155c0 8 -3.33301 15.5 -10 22.5s-14 10.5 -22 10.5h-66v-188h32v155h26c5.33301 0 8 -2.66699 8 -8v-147h32zM607.999 451.001v188h-32v-188h32zM542.999 451.001v291h-32v-291h32zM961.999 157.001h-32
v-19c0 -5.33301 -3 -8 -9 -8h-24c-5.33301 0 -8 2.66699 -8 8v37h73v78c0 8 -3.33301 15.333 -10 22s-14 10 -22 10h-41c-8 0 -15.333 -3.33301 -22 -10s-10 -14 -10 -22v-123c0 -8.66699 3.33301 -16.334 10 -23.001s14 -10 22 -10h41c8 0 15.333 3.33301 22 10
s10 14.334 10 23.001v27zM838.999 253.001v31.999h-33v55c-0.666992 -0.666992 -3 -4.16699 -7 -10.5s-12.333 -10.166 -25 -11.499v-33h-33v-32h33v-140c0 -10.667 5.33301 -16 16 -16h32c-10.667 0 -16 5.33301 -16 16v140h33zM485.999 606v33h-49v-188h33v155
c0 5.33301 2.66699 8 8 8c4 0 6.66699 -2.66699 8 -8zM404.999 451v188h-33v-156h-26c-5.33301 0 -8 2.66699 -8 8v148h-32v-156c0 -8 3.33301 -15.333 10 -22s14 -10 22 -10h67zM726.999 97v188.001h-32v-155h-26c-5.33301 0 -8 2.66699 -8 8v147h-33v-155
c0 -8.66699 3.5 -16.334 10.5 -23.001s14.5 -10 22.5 -10h66zM273.999 580.001c0 11.333 -5.33301 17 -16 17c10.667 0 16 5.33301 16 16v97c0 8 -3.33301 15.333 -10 22s-14 10 -22 10h-76v-291h76c8 0 15.333 3.33301 22 10s10 14 10 22v49v48zM602.999 130.001v123
c0 8 -3.33301 15.333 -10 22s-14 10 -22 10h-40c-8.66699 0 -16.334 -3.33301 -23.001 -10s-10 -14 -10 -22v-123c0 -8.66699 3.33301 -16.334 10 -23.001s14.334 -10 23.001 -10h40c8 0 15.333 3.33301 22 10s10 14.334 10 23.001zM476.999 97.001v129.999
c0 10.667 -5.33301 16 -16 16c10.667 0 16 5.33301 16 16v97c0 8.66699 -3.5 16.334 -10.5 23.001s-14.5 10 -22.5 10h-66v-292h32v130h26c5.33301 0 8 -2.66699 8 -8v-122h33zM1064 491c0 -5.33301 -2.66699 -8 -8 -8h-24c-5.33301 0 -8 2.66699 -8 8v107
c0 5.33301 2.66699 8 8 8h24c5.33301 0 8 -2.66699 8 -8v-107zM832.999 540c0 -5.33301 -2.66699 -8 -8 -8h-24c-5.33301 0 -8 2.66699 -8 8v58c0 5.33301 2.66699 8 8 8h24c5.33301 0 8 -2.66699 8 -8v-58zM929.999 207h-41v38c0 5.33301 2.66699 8 8 8h24
c6 0 9 -2.66699 9 -8v-38zM241.999 621c0 -5.33301 -2.33301 -8 -7 -8h-37v97h36c5.33301 0 8 -3.33301 8 -10v-79zM241.999 572c0 7.33301 0 6.83398 0 -1.49902v-21.5c0 35.333 0 16.666 0 -56.001c0 -6.66699 -2.66699 -10 -8 -10h-36v97h37c4.66699 0 7 -2.66699 7 -8z
M570.999 138.001c0 -5.33301 -2.66699 -8 -8 -8h-24c-5.33301 0 -8 2.66699 -8 8v107c0 5.33301 2.66699 8 8 8h24c5.33301 0 8 -2.66699 8 -8v-107zM443.999 267.001c0 -5.33301 -2 -8 -6 -8h-28v97h26c5.33301 0 8 -3 8 -9v-80z" />
    <glyph glyph-name="plus" unicode="+" horiz-adv-x="2468" 
d="M2318 900l-405 -493v-407h-300v398l-413 502h389l300 -365l300 365h129zM1268 0h-353l-93 150h-461l-93 -150h-118l559 900zM759 250l-168 270l-168 -270h336z" />
    <glyph glyph-name="comma" unicode="," horiz-adv-x="200" 
d="M150 50c0 -14.667 -6.83301 -35 -20.5 -61s-23.5 -39 -29.5 -39v50c-14 -0 -25.833 4.83301 -35.5 14.5s-14.5 21.5 -14.5 35.5s4.83301 25.833 14.5 35.5s21.5 14.5 35.5 14.5s25.833 -4.83301 35.5 -14.5s14.5 -21.5 14.5 -35.5z" />
    <glyph glyph-name="hyphen" unicode="-" horiz-adv-x="600" 
d="M450 300h-300v100h300v-100z" />
    <glyph glyph-name="hyphen" unicode="&#x2010;" horiz-adv-x="600" 
d="M450 300h-300v100h300v-100z" />
    <glyph glyph-name="period" unicode="." horiz-adv-x="200" 
d="M150 50c0 -14 -4.83301 -25.833 -14.5 -35.5s-21.5 -14.5 -35.5 -14.5s-25.833 4.83301 -35.5 14.5s-14.5 21.5 -14.5 35.5s4.83301 25.833 14.5 35.5s21.5 14.5 35.5 14.5s25.833 -4.83301 35.5 -14.5s14.5 -21.5 14.5 -35.5z" />
    <glyph glyph-name="zero" unicode="0" 
d="M1050 200c0 -56 -19.333 -103.333 -58 -142s-86 -58 -142 -58h-500c-56 -0 -103.333 19.333 -142 58s-58 86 -58 142v500c0 56 19.333 103.333 58 142s86 58 142 58h500c56 0 103.333 -19.333 142 -58s58 -86 58 -142v-500zM950 200v500c0 28.667 -9.5 52.5 -28.5 71.5
s-42.833 28.5 -71.5 28.5h-300c-28.667 0 -52.5 -9.5 -71.5 -28.5s-28.5 -42.833 -28.5 -71.5v-500c0 -28.667 9.5 -52.5 28.5 -71.5s42.833 -28.5 71.5 -28.5h300c28.667 0 52.5 9.5 71.5 28.5s28.5 42.833 28.5 71.5z" />
    <glyph glyph-name="one" unicode="1" horiz-adv-x="600" 
d="M450 0h-300v900h300v-900z" />
    <glyph glyph-name="two" unicode="2" 
d="M1050 58c-38.667 -38.667 -85.667 -58 -141 -58h-759v200c0 56 19.333 103.333 58 142s86 58 142 58h500c28.667 0 52.5 9.5 71.5 28.5s28.5 42.833 28.5 71.5v200c0 28.667 -9.5 52.5 -28.5 71.5s-42.833 28.5 -71.5 28.5h-300c-28.667 0 -52.5 -9.5 -71.5 -28.5
s-28.5 -42.833 -28.5 -71.5h-300c0 56 19.333 103.333 58 142s86 58 142 58h500c56 0 103.333 -19.333 142 -58s58 -86 58 -142v-200c0 -56 -19.333 -103.333 -58 -142s-86 -58 -142 -58h-300c-28.667 0 -52.5 -9.5 -71.5 -28.5s-28.5 -42.833 -28.5 -71.5v-100h459
c27.333 0 51 9.66699 71 29z" />
    <glyph glyph-name="three" unicode="3" 
d="M1050 200c0 -56 -19.333 -103.333 -58 -142s-86 -58 -142 -58h-550c-55.333 -0 -102.333 19.333 -141 58l70 71c20 -19.333 43.667 -29 71 -29h550c28.667 0 52.5 9.5 71.5 28.5s28.5 42.833 28.5 71.5s-9.5 52.5 -28.5 71.5s-42.833 28.5 -71.5 28.5h-150v100h150
c28.667 0 52.5 9.5 71.5 28.5s28.5 42.833 28.5 71.5v200c0 28.667 -9.5 52.5 -28.5 71.5s-42.833 28.5 -71.5 28.5h-300c-28.667 0 -52.5 -9.5 -71.5 -28.5s-28.5 -42.833 -28.5 -71.5h-300c0 56 19.333 103.333 58 142s86 58 142 58h500c56 0 103.333 -19.333 142 -58
s58 -86 58 -142v-200c0 -60.667 -22 -110.667 -66 -150c44 -39.333 66 -89.333 66 -150z" />
    <glyph glyph-name="four" unicode="4" 
d="M1050 300h-100v-300h-100v300h-500c-56 0 -103.333 19.333 -142 58s-58 86 -58 142v400h300v-400c0 -28.667 9.5 -52.5 28.5 -71.5s42.833 -28.5 71.5 -28.5h300v400h100v-400h100v-100z" />
    <glyph glyph-name="five" unicode="5" 
d="M1050 800l-600 0.000976562v-211v-78c0 -28.667 0 -32.334 0 -11.001c0 -28.667 9.5 -52.5 28.5 -71.5s42.833 -28.5 71.5 -28.5h300c56 0 103.333 -19.333 142 -58s58 -86 58 -142s-19.333 -103.333 -58 -142s-86 -58 -142 -58h-558c-55.333 -0 -102.333 19.333 -141 58
l70 71c20 -19.333 43.667 -29 71 -29h558c28.667 0 52.5 9.5 71.5 28.5s28.5 42.833 28.5 71.5s-9.5 52.5 -28.5 71.5s-42.833 28.5 -71.5 28.5h-500c-56 0 -103.333 19.333 -142 58s-58 86 -58 142v400h900v-100z" />
    <glyph glyph-name="six" unicode="6" 
d="M1050 842l-70 -71c-20 19.333 -43.667 29 -71 29h-359c-28.667 0 -52.5 -9.5 -71.5 -28.5s-28.5 -42.833 -28.5 -71.5v-500c0 -28.667 9.5 -52.5 28.5 -71.5s42.833 -28.5 71.5 -28.5h300c28.667 0 52.5 9.5 71.5 28.5s28.5 42.833 28.5 71.5s-9.5 52.5 -28.5 71.5
s-42.833 28.5 -71.5 28.5h-350v100h350c56 0 103.333 -19.333 142 -58s58 -86 58 -142s-19.333 -103.333 -58 -142s-86 -58 -142 -58h-500c-56 -0 -103.333 19.333 -142 58s-58 86 -58 142v500c0 56 19.333 103.333 58 142s86 58 142 58h559
c55.333 0 102.333 -19.333 141 -58z" />
    <glyph glyph-name="seven" unicode="7" 
d="M1050 900l-546 -900h-354l489 800h-489v100h900z" />
    <glyph glyph-name="eight" unicode="8" 
d="M1050 200c0 -56 -19.333 -103.333 -58 -142s-86 -58 -142 -58h-500c-56 -0 -103.333 19.333 -142 58s-58 86 -58 142c0 60.667 22 110.667 66 150c-44 39.333 -66 89.333 -66 150v200c0 56 19.333 103.333 58 142s86 58 142 58h500c56 0 103.333 -19.333 142 -58
s58 -86 58 -142v-200c0 -60.667 -22 -110.667 -66 -150c44 -39.333 66 -89.333 66 -150zM950 500v200c0 28.667 -9.5 52.5 -28.5 71.5s-42.833 28.5 -71.5 28.5h-300c-28.667 0 -52.5 -9.5 -71.5 -28.5s-28.5 -42.833 -28.5 -71.5v-200c0 -28.667 9.5 -52.5 28.5 -71.5
s42.833 -28.5 71.5 -28.5h300c28.667 0 52.5 9.5 71.5 28.5s28.5 42.833 28.5 71.5zM950 200c0 28.667 -9.5 52.5 -28.5 71.5s-42.833 28.5 -71.5 28.5h-300c-28.667 0 -52.5 -9.5 -71.5 -28.5s-28.5 -42.833 -28.5 -71.5s9.5 -52.5 28.5 -71.5s42.833 -28.5 71.5 -28.5h300
c28.667 0 52.5 9.5 71.5 28.5s28.5 42.833 28.5 71.5z" />
    <glyph glyph-name="nine" unicode="9" 
d="M1050 200c0 -56 -19.332 -103.333 -57.999 -142s-86 -58 -142 -58h-559c-54.667 -0 -101.667 19.333 -141 58l71 71c19.333 -19.333 42.666 -29 69.999 -29h559c28.667 0 52.5 9.5 71.5 28.5s28.5 42.833 28.5 71.5v500c0 28.667 -9.5 52.5 -28.5 71.5
s-42.833 28.5 -71.5 28.5h-300c-28 0 -51.667 -9.5 -71 -28.5s-29 -42.833 -29 -71.5v-200c0 -28.667 9.66699 -52.5 29 -71.5s43 -28.5 71 -28.5h350v-100h-550c-56 0 -103.333 19.333 -142 58s-58 86 -58 142v200c0 56 19.333 103.333 58 142s86 58 142 58h500
c56 0 103.333 -19.333 142 -58s58 -86 58 -142v-500z" />
    <glyph glyph-name="colon" unicode=":" horiz-adv-x="200" 
d="M150 350c0 -14 -4.83301 -25.833 -14.5 -35.5s-21.5 -14.5 -35.5 -14.5s-25.833 4.83301 -35.5 14.5s-14.5 21.5 -14.5 35.5s4.83301 25.833 14.5 35.5s21.5 14.5 35.5 14.5s25.833 -4.83301 35.5 -14.5s14.5 -21.5 14.5 -35.5zM150 50
c0 -14 -4.83301 -25.833 -14.5 -35.5s-21.5 -14.5 -35.5 -14.5s-25.833 4.83301 -35.5 14.5s-14.5 21.5 -14.5 35.5s4.83301 25.833 14.5 35.5s21.5 14.5 35.5 14.5s25.833 -4.83301 35.5 -14.5s14.5 -21.5 14.5 -35.5z" />
    <glyph glyph-name="semicolon" unicode=";" horiz-adv-x="200" 
d="M150 350c0 -14 -4.83301 -25.833 -14.5 -35.5s-21.5 -14.5 -35.5 -14.5s-25.833 4.83301 -35.5 14.5s-14.5 21.5 -14.5 35.5s4.83301 25.833 14.5 35.5s21.5 14.5 35.5 14.5s25.833 -4.83301 35.5 -14.5s14.5 -21.5 14.5 -35.5zM150 50c0 -14.667 -6.83301 -35 -20.5 -61
s-23.5 -39 -29.5 -39v50c-14 -0 -25.833 4.83301 -35.5 14.5s-14.5 21.5 -14.5 35.5s4.83301 25.833 14.5 35.5s21.5 14.5 35.5 14.5s25.833 -4.83301 35.5 -14.5s14.5 -21.5 14.5 -35.5z" />
    <glyph glyph-name="less" unicode="&#x3c;" horiz-adv-x="2804" 
d="M2654 900l-447 -900l-280 563l-280 -563l-447 900h335l224 -452l224 452h111l224 -452l224 452h112zM1268 0h-353l-93 150h-461l-93 -150h-118l559 900zM759 250l-168 270l-168 -270h336z" />
    <glyph glyph-name="equal" unicode="=" horiz-adv-x="2468" 
d="M2318 0h-353l-93 150h-461l-93 -150h-118l559 900zM1268 900l-405 -493v-407h-300v398l-413 502h389l300 -365l300 365h129zM1809 250l-168 270l-168 -270h336z" />
    <glyph glyph-name="greater" unicode="&#x3e;" horiz-adv-x="2804" 
d="M2654 0h-353l-94 150h-460l-93 -150h-118l559 900zM1604 900l-447 -900l-280 563l-280 -563l-447 900h335l224 -452l224 452h111l224 -452l224 452h112zM2145 250l-168 270l-168 -270h336z" />
    <glyph glyph-name="question" unicode="?" horiz-adv-x="960" 
d="M810 700c-0.666992 -39.333 -10.334 -74.333 -29.001 -105l-178 -295h-352l215 354c7.33301 12.667 11 28 11 46c0 27.333 -9.5 50.833 -28.5 70.5s-42.167 29.5 -69.5 29.5h-229v100h460c55.333 0 102.833 -19.667 142.5 -59s58.834 -86.333 57.501 -141zM603 0h-352
v100h352v-100z" />
    <glyph glyph-name="at" unicode="@" horiz-adv-x="1058" 
d="M1000 1002c-4.66699 -18.667 -15.665 -37.335 -32.998 -56.002c-19.333 -20.667 -31.666 -38 -36.999 -52c-7.33301 -18 -11 -36.333 -11 -55c0 -13.333 2.83301 -32.833 8.5 -58.5s8.5 -45.834 8.5 -60.501c0 -16 -2.33301 -31.667 -7 -47c-12 -40.667 -24 -72 -36 -94
s-31.667 -49.667 -59 -83c-4.66699 -5.33301 -2.33398 -17.666 6.99902 -36.999l5 -12c8.66699 -18 13 -36.333 13 -55c0 -10.667 -2.66699 -30 -8 -58c-4.66699 -25.333 -6.33398 -46.666 -5.00098 -63.999c1.33301 -10 4.33301 -26.333 9 -49c4 -18.667 5.66699 -35 5 -49
c-0.666992 -21.333 -6 -45.333 -16 -72c-14 -36 -21 -55.667 -21 -59s-1.33301 -12.333 -4 -27c-2 -7.33301 -5 -11.666 -9 -12.999c-12 -5.33301 -28 -5.33301 -48 0c-4.66699 1.33301 -7.33398 4.33301 -8.00098 9c-2 8 -1 14.5 3 19.5s8.33301 9.83301 13 14.5
c2 2 4.66699 6 8 12c4.66699 10.667 6 19 4 25c-4 0.666992 -9.66699 1.16699 -17 1.5s-12 2.16602 -14 5.49902c-3.33301 7.33301 -3.66602 14 -0.999023 20c2.66699 3.33301 6.66699 9 12 17c2 4 3 7.66699 3 11c0 9.33301 -13 18 -39 26
c-31.333 9.33301 -51 18.333 -59 27c-4.66699 4.66699 -10.667 18 -18 40c-6 16 -14.667 24 -26 24c-54 -0.666992 -108.333 -13.667 -163 -39c-13.333 -6.66699 -20 -20 -20 -40c0 -7.33301 1.16699 -19 3.5 -35s3.5 -27 3.5 -33c0.666992 -12.667 4.33398 -50 11.001 -112
c0.666992 -10.667 -7.16602 -17.5 -23.499 -20.5s-30.166 -3.16699 -41.499 -0.5c-2.66699 0.666992 -6.66699 3.66699 -12 9c-2.66699 4.66699 -2.66699 10 0 16l12 12c6 8 9 14.667 9 20c-12.667 26.667 -28.667 66.667 -48 120
c-1.33301 5.33301 -6.33301 15.833 -15 31.5s-14 23.834 -16 24.501l-32 21c-6 2.66699 -20 4.33398 -42 5.00098c-5.33301 0 -14.666 -12 -27.999 -36c-12 -20.667 -20.333 -38.334 -25 -53.001c-7.33301 -16 -21 -53.667 -41 -113c-2 -8.66699 -7.5 -15.334 -16.5 -20.001
s-24.833 -5 -47.5 -1c-6.66699 0.666992 -11.834 3.83398 -15.501 9.50098s-3.83398 11.5 -0.500977 17.5c1.33301 2 6.66602 4.66699 15.999 8c7.33301 2.66699 15 12 23 28c4.66699 8 7 17.667 7 29c0.666992 15.333 1.33398 25.333 2.00098 30
c5.33301 14 12.666 37 21.999 69l10 30c3.33301 10 4 20.333 2 31s-6 20.334 -12 29.001c-8.66699 10.667 -14 18.334 -16 23.001c-4 8.66699 -4.66699 22.667 -2 42c1.33301 8 4.66602 15.833 9.99902 23.5s7.66602 12.5 6.99902 14.5c-2 8.66699 -9.33301 16 -22 22
c-15.333 6 -24.666 12 -27.999 18c-15.333 22 -22 46.667 -20 74c0.666992 16.667 8.33398 37.667 23.001 63c-3.33301 5.33301 -12 15.666 -26 30.999c-8.66699 9.33301 -17 24 -25 44c26 -8.66699 56.667 -22.334 92 -41.001c1.33301 -0.666992 3 -1 5 -1
c2.66699 0 6.5 1.66699 11.5 5s9.16699 5.33301 12.5 6c14.667 3.33301 35 4.66602 61 3.99902c3.33301 -0.666992 8.5 -2.83398 15.5 -6.50098s12.167 -5.5 15.5 -5.5c2 0 4 0.666992 6 2c6 4 25 18.333 57 43c0 -11.333 0.833008 -19.5 2.5 -24.5s2.16699 -13.5 1.5 -25.5
v-17c-1.33301 -6.66699 -7 -13.334 -17 -20.001c-3.33301 -2.66699 -5 -4.66699 -5 -6l7 -9.5c4.66699 -6.33301 7.66699 -14.5 9 -24.5c16 4 41.667 9.66699 77 17c26 4.66699 47.333 7.33398 64 8.00098c10.667 0.666992 23 0.666992 37 0
c17.333 -0.666992 31.666 -1 42.999 -1c34 -3.33301 90.333 -4 169 -2c15.333 1.33301 28 4.83301 38 10.5s22 15.5 36 29.5c19.333 20.667 37.333 46.334 54 77.001c14 24.667 21 52 21 82c0 8 -0.666992 20.167 -2 36.5s-2 28.5 -2 36.5c0 28.667 6 54.667 18 78
c20 40.667 49 78.334 87 113.001c12 10.667 23 14.667 33 12c7.33301 -2.66699 9.66602 -9 6.99902 -19zM255.002 519.999c-6 6.66699 -13.999 10 -23.999 10c-8.66699 0 -15.667 -3.33301 -21 -10c5.33301 -6 12.666 -9 21.999 -9s17 3 23 9zM162.003 518.999
c-6 6.66699 -13.665 10 -22.998 10c-8.66699 0 -15.667 -3.33301 -21 -10c5.33301 -6 12.666 -9 21.999 -9s16.666 3 21.999 9z" />
    <glyph glyph-name="A" unicode="A" horiz-adv-x="1418" 
d="M1268 0h-353l-93 150h-461l-93 -150h-118l559 900zM759 250l-168 270l-168 -270h336z" />
    <glyph glyph-name="B" unicode="B" horiz-adv-x="1300" 
d="M1150 200c0 -56 -19.333 -103.333 -58 -142s-86 -58 -142 -58h-800v900h800c56 0 103.333 -19.333 142 -58s58 -86 58 -142v-200c0 -60.667 -22 -110.667 -66 -150c44 -39.333 66 -89.333 66 -150zM1050 500v200c0 28.667 -9.5 52.5 -28.5 71.5s-42.833 28.5 -71.5 28.5
h-500v-400h500c28.667 0 52.5 9.5 71.5 28.5s28.5 42.833 28.5 71.5zM1050 200c0 28.667 -9.5 52.5 -28.5 71.5s-42.833 28.5 -71.5 28.5h-500v-200h500c28.667 0 52.5 9.5 71.5 28.5s28.5 42.833 28.5 71.5z" />
    <glyph glyph-name="C" unicode="C" 
d="M1050 0h-700c-56 -0 -103.333 19.333 -142 58s-58 86 -58 142v500c0 56 19.333 103.333 58 142s86 58 142 58h700v-100h-500c-28.667 0 -52.5 -9.5 -71.5 -28.5s-28.5 -42.833 -28.5 -71.5v-500c0 -28.667 9.5 -52.5 28.5 -71.5s42.833 -28.5 71.5 -28.5h500v-100z" />
    <glyph glyph-name="D" unicode="D" horiz-adv-x="1300" 
d="M1150 200c0 -56 -19.333 -103.333 -58 -142s-86 -58 -142 -58h-800v900h800c56 0 103.333 -19.333 142 -58s58 -86 58 -142v-500zM1050 200v500c0 28.667 -9.5 52.5 -28.5 71.5s-42.833 28.5 -71.5 28.5h-500v-700h500c28.667 0 52.5 9.5 71.5 28.5
s28.5 42.833 28.5 71.5z" />
    <glyph glyph-name="E" unicode="E" horiz-adv-x="1100" 
d="M950 0h-800v900h800v-100h-500v-400h400v-100h-400v-200h500v-100z" />
    <glyph glyph-name="F" unicode="F" horiz-adv-x="1100" 
d="M950 800h-500v-400h400v-100h-400v-300h-300v900h800v-100z" />
    <glyph glyph-name="G" unicode="G" horiz-adv-x="1300" 
d="M1150 800h-600c-28.667 0 -52.5 -9.5 -71.5 -28.5s-28.5 -42.833 -28.5 -71.5v-500c0 -28.667 9.5 -52.5 28.5 -71.5s42.833 -28.5 71.5 -28.5h400c28.667 0 52.5 9.5 71.5 28.5s28.5 42.833 28.5 71.5v50h-200v100h300v-150c0 -56 -19.333 -103.333 -58 -142
s-86 -58 -142 -58h-600c-56 -0 -103.333 19.333 -142 58s-58 86 -58 142v500c0 56 19.333 103.333 58 142s86 58 142 58h800v-100z" />
    <glyph glyph-name="H" unicode="H" horiz-adv-x="1350" 
d="M1200 0h-100v300h-650v-300h-300v900h300v-500h650v500h100v-900z" />
    <glyph glyph-name="I" unicode="I" horiz-adv-x="600" 
d="M450 0h-300v900h300v-900z" />
    <glyph glyph-name="J" unicode="J" horiz-adv-x="1100" 
d="M950 200c0 -56 -19.332 -103.333 -57.999 -142s-86 -58 -142 -58h-459c-54.667 -0 -101.667 19.333 -141 58l71 71c19.333 -19.333 42.666 -29 69.999 -29h259c28.667 0 52.5 9.5 71.5 28.5s28.5 42.833 28.5 71.5v700h300v-700z" />
    <glyph glyph-name="K" unicode="K" horiz-adv-x="1222" 
d="M1072 0h-121l-342 488l-159 -159v-329h-300v900h300v-429l430 429h140l-339 -340z" />
    <glyph glyph-name="L" unicode="L" horiz-adv-x="1100" 
d="M950 0h-800v900h300v-800h500v-100z" />
    <glyph glyph-name="M" unicode="M" horiz-adv-x="1600" 
d="M1450 0h-300v718l-450 -716l-450 716v-718h-100v900h340l329 -522l328 522h303v-900z" />
    <glyph glyph-name="N" unicode="N" horiz-adv-x="1350" 
d="M1200 0h-307l-643 682v-682h-100v900h307l643 -682v682h100v-900z" />
    <glyph glyph-name="O" unicode="O" horiz-adv-x="1350" 
d="M1200 200c0 -56 -19.333 -103.333 -58 -142s-86 -58 -142 -58h-650c-56 -0 -103.333 19.333 -142 58s-58 86 -58 142v500c0 56 19.333 103.333 58 142s86 58 142 58h650c56 0 103.333 -19.333 142 -58s58 -86 58 -142v-500zM1100 200v500c0 28.667 -9.5 52.5 -28.5 71.5
s-42.833 28.5 -71.5 28.5h-450c-28.667 0 -52.5 -9.5 -71.5 -28.5s-28.5 -42.833 -28.5 -71.5v-500c0 -28.667 9.5 -52.5 28.5 -71.5s42.833 -28.5 71.5 -28.5h450c28.667 0 52.5 9.5 71.5 28.5s28.5 42.833 28.5 71.5z" />
    <glyph glyph-name="P" unicode="P" horiz-adv-x="1300" 
d="M1150 500c0 -56 -19.333 -103.333 -58 -142s-86 -58 -142 -58h-500v-300h-300v900h800c56 0 103.333 -19.333 142 -58s58 -86 58 -142v-200zM1050 500v200c0 28.667 -9.5 52.5 -28.5 71.5s-42.833 28.5 -71.5 28.5h-500v-400h500c28.667 0 52.5 9.5 71.5 28.5
s28.5 42.833 28.5 71.5z" />
    <glyph glyph-name="Q" unicode="Q" horiz-adv-x="1350" 
d="M1200 200c0 -56 -19.333 -103.333 -58 -142s-86 -58 -142 -58h-40l75 -100h-126l-75 100h-484c-56 -0 -103.333 19.333 -142 58s-58 86 -58 142v500c0 56 19.333 103.333 58 142s86 58 142 58h650c56 0 103.333 -19.333 142 -58s58 -86 58 -142v-500zM1100 200v500
c0 28.667 -9.5 52.5 -28.5 71.5s-42.833 28.5 -71.5 28.5h-450c-28.667 0 -52.5 -9.5 -71.5 -28.5s-28.5 -42.833 -28.5 -71.5v-500c0 -28.667 9.5 -52.5 28.5 -71.5s42.833 -28.5 71.5 -28.5h209l-75 100h126l75 -100h115c28.667 0 52.5 9.5 71.5 28.5
s28.5 42.833 28.5 71.5z" />
    <glyph glyph-name="R" unicode="R" horiz-adv-x="1346" 
d="M1196 0h-142l-300 300h-304v-300h-300v900h800c56 0 103.333 -19.333 142 -58s58 -86 58 -142v-200c0 -56 -19.333 -103.333 -58 -142s-86 -58 -142 -58h-54zM1050 500v200c0 28.667 -9.5 52.5 -28.5 71.5s-42.833 28.5 -71.5 28.5h-500v-400h500
c28.667 0 52.5 9.5 71.5 28.5s28.5 42.833 28.5 71.5z" />
    <glyph glyph-name="S" unicode="S" horiz-adv-x="1075" 
d="M925 200c0 -55.333 -19.5 -102.5 -58.5 -141.5s-86.167 -58.5 -141.5 -58.5h-575v100h289c28 0 51.667 9.83301 71 29.5s29 43.167 29 70.5c0 28 -10.333 52.333 -31 73l-293 290c-36 36 -54 81.667 -54 137s19.5 102.5 58.5 141.5s86.167 58.5 141.5 58.5h515v-100h-229
c-28 0 -51.667 -9.83301 -71 -29.5s-29 -43.167 -29 -70.5c0 -28 8.66699 -50.667 26 -68l293 -291c39.333 -39.333 59 -86.333 59 -141z" />
    <glyph glyph-name="T" unicode="T" horiz-adv-x="1100" 
d="M950 800h-250v-800h-300v800h-250v100h800v-100z" />
    <glyph glyph-name="U" unicode="U" horiz-adv-x="1350" 
d="M1200 200c0 -56 -19.333 -103.333 -58 -142s-86 -58 -142 -58h-650c-56 -0 -103.333 19.333 -142 58s-58 86 -58 142v700h300v-700c0 -28.667 9.5 -52.5 28.5 -71.5s42.833 -28.5 71.5 -28.5h450c28.667 0 52.5 9.5 71.5 28.5s28.5 42.833 28.5 71.5v700h100v-700z" />
    <glyph glyph-name="V" unicode="V" horiz-adv-x="1418" 
d="M1268 900l-559 -900l-559 900h353l324 -520l323 520h118z" />
    <glyph glyph-name="W" unicode="W" horiz-adv-x="1754" 
d="M1604 900l-447 -900l-280 563l-280 -563l-447 900h335l224 -452l224 452h111l224 -452l224 452h112z" />
    <glyph glyph-name="X" unicode="X" horiz-adv-x="1216" 
d="M1066 0h-353l-225 362l-227 -362h-111l281 453l-277 447h353l220 -354l222 354h111l-277 -445z" />
    <glyph glyph-name="Y" unicode="Y" horiz-adv-x="1418" 
d="M1268 900l-405 -493v-407h-300v398l-413 502h389l300 -365l300 365h129z" />
    <glyph glyph-name="Z" unicode="Z" horiz-adv-x="1216" 
d="M1066 0h-916l500 800h-484v100h900l-500 -800h500v-100z" />
    <glyph glyph-name="bracketleft" unicode="[" horiz-adv-x="2320" 
d="M2170 800h-250v-800h-300v800h-250v100h800v-100zM1268 0h-353l-93 150h-461l-93 -150h-118l559 900zM759 250l-168 270l-168 -270h336z" />
    <glyph glyph-name="bracketright" unicode="]" horiz-adv-x="2320" 
d="M2170 0h-353l-93 150h-461l-93 -150h-118l559 900zM950 800h-250v-800h-300v800h-250v100h800v-100zM1661 250l-168 270l-168 -270h336z" />
    <glyph glyph-name="a" unicode="a" horiz-adv-x="1134" 
d="M1014 0h-282l-75 120h-368l-75 -120h-94l447 720zM607 200l-134 216l-134 -216h268z" />
    <glyph glyph-name="b" unicode="b" horiz-adv-x="1040" 
d="M920 160c0 -44.667 -15.5 -82.5 -46.5 -113.5s-68.833 -46.5 -113.5 -46.5h-640v720h640c44.667 0 82.5 -15.5 113.5 -46.5s46.5 -68.833 46.5 -113.5v-160c0 -48.667 -17.667 -88.667 -53 -120c35.333 -31.333 53 -71.333 53 -120zM840 400v160
c0 22.667 -7.66699 41.667 -23 57s-34.333 23 -57 23h-400v-320h400c22.667 0 41.667 7.66699 57 23s23 34.333 23 57zM840 160c0 22.667 -7.66699 41.667 -23 57s-34.333 23 -57 23h-400v-160h400c22.667 0 41.667 7.66699 57 23s23 34.333 23 57z" />
    <glyph glyph-name="c" unicode="c" horiz-adv-x="960" 
d="M840 0h-560c-44.667 0 -82.5 15.5 -113.5 46.5s-46.5 68.833 -46.5 113.5v400c0 44.667 15.5 82.5 46.5 113.5s68.833 46.5 113.5 46.5h560v-80h-400c-22.667 0 -41.667 -7.66699 -57 -23s-23 -34.333 -23 -57v-400c0 -22.667 7.66699 -41.667 23 -57s34.333 -23 57 -23
h400v-80z" />
    <glyph glyph-name="d" unicode="d" horiz-adv-x="1040" 
d="M920 160c0 -44.667 -15.5 -82.5 -46.5 -113.5s-68.833 -46.5 -113.5 -46.5h-640v720h640c44.667 0 82.5 -15.5 113.5 -46.5s46.5 -68.833 46.5 -113.5v-400zM840 160v400c0 22.667 -7.66699 41.667 -23 57s-34.333 23 -57 23h-400v-560h400
c22.667 0 41.667 7.66699 57 23s23 34.333 23 57z" />
    <glyph glyph-name="e" unicode="e" horiz-adv-x="880" 
d="M760 0h-640v720h640v-80h-400v-320h320v-80h-320v-160h400v-80z" />
    <glyph glyph-name="f" unicode="f" horiz-adv-x="880" 
d="M760 640h-400v-320h320v-80h-320v-240h-240v720h640v-80z" />
    <glyph glyph-name="g" unicode="g" horiz-adv-x="1040" 
d="M920 640h-480c-22.667 0 -41.667 -7.66699 -57 -23s-23 -34.333 -23 -57v-400c0 -22.667 7.66699 -41.667 23 -57s34.333 -23 57 -23h320c22.667 0 41.667 7.66699 57 23s23 34.333 23 57v40h-160v80h240v-120c0 -44.667 -15.5 -82.5 -46.5 -113.5
s-68.833 -46.5 -113.5 -46.5h-480c-44.667 0 -82.5 15.5 -113.5 46.5s-46.5 68.833 -46.5 113.5v400c0 44.667 15.5 82.5 46.5 113.5s68.833 46.5 113.5 46.5h640v-80z" />
    <glyph glyph-name="h" unicode="h" horiz-adv-x="1080" 
d="M960 0h-80v240h-520v-240h-240v720h240v-400h520v400h80v-720z" />
    <glyph glyph-name="i" unicode="i" horiz-adv-x="480" 
d="M360 0h-240v720h240v-720z" />
    <glyph glyph-name="j" unicode="j" horiz-adv-x="880" 
d="M760 160c0 -44.667 -15.5 -82.5 -46.5 -113.5s-68.833 -46.5 -113.5 -46.5h-367c-44 0 -81.667 15.667 -113 47l57 56c15.333 -15.333 34 -23 56 -23h207c22.667 0 41.667 7.66699 57 23s23 34.333 23 57v560h240v-560z" />
    <glyph glyph-name="k" unicode="k" horiz-adv-x="978" 
d="M858 0h-97l-274 391l-127 -128v-263h-240v720h240v-344l344 344h112l-272 -272z" />
    <glyph glyph-name="l" unicode="l" horiz-adv-x="880" 
d="M760 0h-640v720h240v-640h400v-80z" />
    <glyph glyph-name="m" unicode="m" horiz-adv-x="1280" 
d="M1160 0h-240v574l-360 -572l-360 572v-574h-80v720h272l263 -418l263 418h242v-720z" />
    <glyph glyph-name="n" unicode="n" horiz-adv-x="1080" 
d="M960 0h-246l-514 545v-545h-80v720h246l514 -546v546h80v-720z" />
    <glyph glyph-name="o" unicode="o" horiz-adv-x="1080" 
d="M960 160c0 -44.667 -15.5 -82.5 -46.5 -113.5s-68.833 -46.5 -113.5 -46.5h-520c-44.667 0 -82.5 15.5 -113.5 46.5s-46.5 68.833 -46.5 113.5v400c0 44.667 15.5 82.5 46.5 113.5s68.833 46.5 113.5 46.5h520c44.667 0 82.5 -15.5 113.5 -46.5s46.5 -68.833 46.5 -113.5
v-400zM880 160v400c0 22.667 -7.66699 41.667 -23 57s-34.333 23 -57 23h-360c-22.667 0 -41.667 -7.66699 -57 -23s-23 -34.333 -23 -57v-400c0 -22.667 7.66699 -41.667 23 -57s34.333 -23 57 -23h360c22.667 0 41.667 7.66699 57 23s23 34.333 23 57z" />
    <glyph glyph-name="p" unicode="p" horiz-adv-x="1040" 
d="M920 400c0 -44.667 -15.5 -82.5 -46.5 -113.5s-68.833 -46.5 -113.5 -46.5h-400v-240h-240v720h640c44.667 0 82.5 -15.5 113.5 -46.5s46.5 -68.833 46.5 -113.5v-160zM840 400v160c0 22.667 -7.66699 41.667 -23 57s-34.333 23 -57 23h-400v-320h400
c22.667 0 41.667 7.66699 57 23s23 34.333 23 57z" />
    <glyph glyph-name="q" unicode="q" horiz-adv-x="1080" 
d="M960 160c0 -44.667 -15.5 -82.5 -46.5 -113.5s-68.833 -46.5 -113.5 -46.5h-32l60 -80h-101l-60 80h-387c-44.667 0 -82.5 15.5 -113.5 46.5s-46.5 68.833 -46.5 113.5v400c0 44.667 15.5 82.5 46.5 113.5s68.833 46.5 113.5 46.5h520c44.667 0 82.5 -15.5 113.5 -46.5
s46.5 -68.833 46.5 -113.5v-400zM880 160v400c0 22.667 -7.66699 41.667 -23 57s-34.333 23 -57 23h-360c-22.667 0 -41.667 -7.66699 -57 -23s-23 -34.333 -23 -57v-400c0 -22.667 7.66699 -41.667 23 -57s34.333 -23 57 -23h167l-60 80h101l60 -80h92
c22.667 0 41.667 7.66699 57 23s23 34.333 23 57z" />
    <glyph glyph-name="r" unicode="r" horiz-adv-x="1077" 
d="M957 0h-114l-240 240h-243v-240h-240v720h640c44.667 0 82.5 -15.5 113.5 -46.5s46.5 -68.833 46.5 -113.5v-160c0 -44.667 -15.5 -82.5 -46.5 -113.5s-68.833 -46.5 -113.5 -46.5h-43zM840 400v160c0 22.667 -7.66699 41.667 -23 57s-34.333 23 -57 23h-400v-320h400
c22.667 0 41.667 7.66699 57 23s23 34.333 23 57z" />
    <glyph glyph-name="s" unicode="s" horiz-adv-x="860" 
d="M740 160c0 -44 -15.667 -81.668 -47 -113.001s-69 -47 -113 -47h-460v80h231c22 0 40.833 7.83301 56.5 23.5s23.5 34.5 23.5 56.5c0 22.667 -8 42 -24 58l-235 232c-28.667 28.667 -43 65.334 -43 110.001c0 44 15.5 81.667 46.5 113s68.833 47 113.5 47h412v-80h-184
c-22 0 -40.833 -7.83301 -56.5 -23.5s-23.5 -34.5 -23.5 -56.5s7.33301 -40 22 -54l234 -233c31.333 -31.333 47 -69 47 -113z" />
    <glyph glyph-name="t" unicode="t" horiz-adv-x="880" 
d="M760 640h-200v-640h-240v640h-200v80h640v-80z" />
    <glyph glyph-name="u" unicode="u" horiz-adv-x="1080" 
d="M960 160c0 -44.667 -15.5 -82.5 -46.5 -113.5s-68.833 -46.5 -113.5 -46.5h-520c-44.667 0 -82.5 15.5 -113.5 46.5s-46.5 68.833 -46.5 113.5v560h240v-560c0 -22.667 7.66699 -41.667 23 -57s34.333 -23 57 -23h360c22.667 0 41.667 7.66699 57 23s23 34.333 23 57v560
h80v-560z" />
    <glyph glyph-name="v" unicode="v" horiz-adv-x="1134" 
d="M1014 720l-447 -720l-447 720h282l260 -416l258 416h94z" />
    <glyph glyph-name="w" unicode="w" horiz-adv-x="1403" 
d="M1283 720l-358 -720l-223 450l-224 -450l-358 720h268l179 -362l179 362h90l179 -362l179 362h89z" />
    <glyph glyph-name="x" unicode="x" horiz-adv-x="973" 
d="M853 0h-283l-179 289l-182 -289h-89l225 363l-222 357h283l175 -283l178 283h89l-221 -356z" />
    <glyph glyph-name="y" unicode="y" horiz-adv-x="1134" 
d="M1014 720l-324 -394v-326h-240v318l-330 402h311l240 -292l240 292h103z" />
    <glyph glyph-name="z" unicode="z" horiz-adv-x="973" 
d="M853 0h-733l400 640h-387v80h720l-400 -640h400v-80z" />
    <glyph glyph-name="braceleft" unicode="{" horiz-adv-x="2468" 
d="M2318 900l-559 -900l-559 900h353l324 -520l323 520h118zM1268 0h-353l-93 150h-461l-93 -150h-118l559 900zM759 250l-168 270l-168 -270h336z" />
    <glyph glyph-name="bar" unicode="|" horiz-adv-x="2068" 
d="M1918 900l-559 -900l-559 900h353l324 -520l323 520h118zM950 0h-800v900h300v-800h500v-100z" />
    <glyph glyph-name="braceright" unicode="}" horiz-adv-x="2468" 
d="M2318 0h-353l-93 150h-461l-93 -150h-118l559 900zM1268 900l-559 -900l-559 900h353l324 -520l323 520h118zM1809 250l-168 270l-168 -270h336z" />
    <glyph glyph-name="AE" unicode="&#xc6;" horiz-adv-x="1659" 
d="M1509 0h-800v300h-255l-186 -300h-118l559 900h800v-100h-500v-400h400v-100h-400v-200h500v-100zM709 400v310l-193 -310h193z" />
    <glyph glyph-name=".null" horiz-adv-x="0" 
 />
    <glyph glyph-name="nonmarkingreturn" horiz-adv-x="900" 
 />
  </font>
</defs>
</svg>
